<svg width="1461" height="524" viewBox="0 0 1461 524" fill="none" xmlns="http://www.w3.org/2000/svg">
<path d="M0 0H1461V262H0V0Z" fill="#515151"/>
<path d="M10 272H1451V514H10V272Z" stroke="#515151" stroke-width="20"/>
<path d="M356.4 70C371.347 70 383.633 75.7 393.26 87.1C403.013 98.5 407.89 113.003 407.89 130.61C407.89 152.903 402.127 170.89 390.6 184.57C379.073 198.25 363.937 205.09 345.19 205.09C330.623 205.09 318.4 199.263 308.52 187.61C298.64 175.83 293.7 161.327 293.7 144.1C293.7 122.567 299.59 104.833 311.37 90.9C323.15 76.9667 338.16 70 356.4 70ZM382.05 141.25C382.05 109.203 371.537 93.18 350.51 93.18C340.883 93.18 333.283 96.79 327.71 104.01C322.263 111.103 319.54 121.807 319.54 136.12C319.54 150.307 322.453 162.023 328.28 171.27C334.233 180.39 342.023 184.95 351.65 184.95C361.403 184.95 368.877 181.087 374.07 173.36C379.39 165.507 382.05 154.803 382.05 141.25ZM469.855 179.25H472.135L481.635 146.57L501.585 70.76L524.575 74.18L501.965 149.61L487.145 201.48L451.995 203.95L438.505 153.22L416.465 75.51L443.445 70.76L460.735 144.1L469.855 179.25ZM542.555 203L544.835 156.83L542.555 71.9H613.805L611.715 92.23H568.965L567.825 125.86H605.825L603.735 146H567.065L566.875 153.6L568.205 182.86H614.185L612.095 203H542.555ZM670.081 152.46H659.251V153.6L661.531 203H636.071L638.351 156.83L636.071 71.9H677.301C689.461 71.9 699.151 75.1933 706.371 81.78C713.591 88.3667 717.201 97.1067 717.201 108C717.201 116.233 715.048 123.77 710.741 130.61C706.561 137.323 700.861 142.643 693.641 146.57L726.701 193.31L703.711 205.09L674.071 152.27C673.184 152.397 671.854 152.46 670.081 152.46ZM670.461 91.09H661.151L659.821 134.03H672.741C679.074 134.03 683.951 131.94 687.371 127.76C690.918 123.58 692.691 117.627 692.691 109.9C692.691 97.36 685.281 91.09 670.461 91.09ZM746.1 203L748.38 156.83L746.1 75.7L773.08 70.95L770.42 153.6L771.75 184.38L810.7 181.34L808.61 203H746.1ZM880.199 70C895.145 70 907.432 75.7 917.059 87.1C926.812 98.5 931.689 113.003 931.689 130.61C931.689 152.903 925.926 170.89 914.399 184.57C902.872 198.25 887.736 205.09 868.989 205.09C854.422 205.09 842.199 199.263 832.319 187.61C822.439 175.83 817.499 161.327 817.499 144.1C817.499 122.567 823.389 104.833 835.169 90.9C846.949 76.9667 861.959 70 880.199 70ZM905.849 141.25C905.849 109.203 895.336 93.18 874.309 93.18C864.682 93.18 857.082 96.79 851.509 104.01C846.062 111.103 843.339 121.807 843.339 136.12C843.339 150.307 846.252 162.023 852.079 171.27C858.032 180.39 865.822 184.95 875.449 184.95C885.202 184.95 892.675 181.087 897.869 173.36C903.189 165.507 905.849 154.803 905.849 141.25ZM1005.81 70C1020.76 70 1033.05 75.7 1042.67 87.1C1052.43 98.5 1057.3 113.003 1057.3 130.61C1057.3 152.903 1051.54 170.89 1040.01 184.57C1028.49 198.25 1013.35 205.09 994.604 205.09C980.037 205.09 967.814 199.263 957.934 187.61C948.054 175.83 943.114 161.327 943.114 144.1C943.114 122.567 949.004 104.833 960.784 90.9C972.564 76.9667 987.574 70 1005.81 70ZM1031.46 141.25C1031.46 109.203 1020.95 93.18 999.924 93.18C990.297 93.18 982.697 96.79 977.124 104.01C971.677 111.103 968.954 121.807 968.954 136.12C968.954 150.307 971.867 162.023 977.694 171.27C983.647 180.39 991.437 184.95 1001.06 184.95C1010.82 184.95 1018.29 181.087 1023.48 173.36C1028.8 165.507 1031.46 154.803 1031.46 141.25ZM1105.21 70.95L1103.12 132.89L1151.57 71.33L1170.95 84.25L1127.25 134.98L1173.61 189.89L1149.29 205.09L1102.93 139.54L1102.55 153.6L1104.83 203H1078.23L1080.51 156.83L1078.23 75.7L1105.21 70.95Z" fill="white"/>
<path d="M609.5 337.75L607.4 403L609.2 442H588.2L590 405.55L589.7 397.6H549.35L549.2 403L551 442H530L531.8 405.55L530 341.5L551.3 337.75L549.8 381.7H589.25L588.2 341.5L609.5 337.75ZM675.564 337C687.364 337 697.064 341.5 704.664 350.5C712.364 359.5 716.214 370.95 716.214 384.85C716.214 402.45 711.664 416.65 702.564 427.45C693.464 438.25 681.514 443.65 666.714 443.65C655.214 443.65 645.564 439.05 637.764 429.85C629.964 420.55 626.064 409.1 626.064 395.5C626.064 378.5 630.714 364.5 640.014 353.5C649.314 342.5 661.164 337 675.564 337ZM695.814 393.25C695.814 367.95 687.514 355.3 670.914 355.3C663.314 355.3 657.314 358.15 652.914 363.85C648.614 369.45 646.464 377.9 646.464 389.2C646.464 400.4 648.764 409.65 653.364 416.95C658.064 424.15 664.214 427.75 671.814 427.75C679.514 427.75 685.414 424.7 689.514 418.6C693.714 412.4 695.814 403.95 695.814 393.25ZM720.734 355.75L722.384 338.5H793.634L791.984 355.75L765.884 353.5L765.284 403L767.084 442H746.084L747.884 405.55L747.284 353.65L720.734 355.75ZM805.684 442L807.484 405.55L805.684 338.5H861.934L860.284 354.55H826.534L825.634 381.1H855.634L853.984 397H825.034L824.884 403L825.934 426.1H862.234L860.584 442H805.684ZM879.512 442L881.312 405.55L879.512 341.5L900.812 337.75L898.712 403L899.762 427.3L930.512 424.9L928.862 442H879.512Z" fill="#515151"/>
</svg>
